<?xml version="1.0" encoding="utf-8"?>
<!-- Generator: Adobe Illustrator 19.1.0, SVG Export Plug-In . SVG Version: 6.00 Build 0)  -->
<svg version="1.1" id="Layer_1" xmlns="http://www.w3.org/2000/svg" xmlns:xlink="http://www.w3.org/1999/xlink" x="0px" y="0px"
	 viewBox="0 0 640 480" style="enable-background:new 0 0 640 480;" xml:space="preserve">
<style type="text/css">
	.st0{fill:#4D4D4D;}
</style>
<g>
	<g>
		<path class="st0" d="M288.8,129.2v8.5h-20.1v48h-10.9v-48h-20.1v-8.5H288.8z"/>
		<path class="st0" d="M310,129.2v24h0.2c3.2-4,7.1-6,11.6-6c4,0,7.3,1.3,9.7,4s3.7,6.1,3.7,10.4v24.2h-9.9v-22.3
			c0-2.5-0.6-4.6-1.8-6c-1.2-1.5-2.8-2.2-4.9-2.2c-1.5,0-2.9,0.4-4.3,1.3c-1.3,0.9-2.8,2.3-4.3,4.3v25H300v-56.5H310z"/>
		<path class="st0" d="M354.3,130.5c1.5,0,2.9,0.6,4,1.7c1.1,1.1,1.7,2.4,1.7,4c0,1.5-0.5,2.8-1.6,3.9c-1.1,1.1-2.4,1.7-4,1.7
			c-1.5,0-2.8-0.6-3.9-1.7c-1.1-1.1-1.7-2.5-1.7-3.9c0-1.6,0.6-2.9,1.7-4C351.5,131,352.8,130.5,354.3,130.5z M359.2,147.9v37.8
			h-9.9v-37.8H359.2z"/>
		<path class="st0" d="M385.9,147.2c2.1,0,4,0.2,5.9,0.7c1.8,0.5,3.8,1.2,5.8,2.2v8c-1.9-1.2-3.9-2.2-6.1-2.9
			c-2.2-0.7-4.1-1.1-5.8-1.1c-1.4,0-2.5,0.3-3.4,0.8c-0.8,0.5-1.2,1.3-1.2,2.3c0,0.6,0.3,1.1,1,1.7c0.7,0.6,2.5,1.6,5.5,3.1
			c4.3,2.2,7.3,4.2,9.1,6c1.7,1.8,2.6,4.1,2.6,6.7c0,3.6-1.3,6.5-3.8,8.6c-2.5,2.1-6,3.1-10.3,3.1c-2.7,0-5.2-0.3-7.5-0.9
			c-2.3-0.6-4.3-1.3-5.8-2.1v-8.3c4.9,2.7,8.9,4,12.3,4c1.7,0,3.1-0.3,4.1-0.9c1.1-0.6,1.6-1.4,1.6-2.4c0-0.6-0.2-1.1-0.6-1.6
			c-0.4-0.5-0.9-1-1.7-1.5s-3.1-1.7-7.1-3.7c-3-1.5-5.3-3-6.8-4.8s-2.2-3.7-2.2-6.1c0-3.3,1.3-6,3.9-8
			C378.2,148.2,381.6,147.2,385.9,147.2z"/>
		<path class="st0" d="M166.8,213.4c3.2,0,6.4,0.4,9.4,1.1c3.1,0.7,6.4,2,9.9,3.7v10.3c-3.5-2-6.7-3.4-9.6-4.3c-3-0.9-6-1.3-9.2-1.3
			c-4,0-7.6,0.8-10.9,2.5c-3.2,1.7-5.8,4-7.5,7c-1.8,3-2.7,6.4-2.7,10.1c0,3.8,0.9,7.2,2.7,10.1c1.8,3,4.3,5.3,7.5,6.9
			c3.2,1.6,6.9,2.4,10.9,2.4c3.1,0,6.1-0.4,8.9-1.3c2.8-0.9,6.4-2.5,10.7-4.8v10.3c-3.7,1.9-7,3.3-10.1,4.1
			c-3.1,0.8-6.7,1.2-10.8,1.2c-6,0-11.3-1.2-16-3.6c-4.7-2.4-8.4-5.8-11.1-10.3c-2.7-4.5-4-9.4-4-14.7c0-5.7,1.4-10.8,4.1-15.3
			c2.8-4.5,6.6-8,11.4-10.5C155.3,214.7,160.8,213.4,166.8,213.4z"/>
		<path class="st0" d="M218.9,232.2c3.9,0,7.5,0.8,10.7,2.5c3.2,1.6,5.7,3.9,7.4,6.9c1.8,3,2.6,6.3,2.6,10.1c0,3.9-0.8,7.3-2.5,10.3
			s-4.2,5.3-7.4,7c-3.3,1.7-6.9,2.5-10.8,2.5c-4,0-7.6-0.8-10.8-2.5c-3.2-1.7-5.7-4-7.4-7s-2.5-6.4-2.5-10.3c0-3.8,0.9-7.2,2.7-10.1
			c1.8-2.9,4.3-5.2,7.4-6.9C211.5,233,215,232.2,218.9,232.2z M208.6,251.6c0,3.8,0.9,6.8,2.8,9c1.8,2.3,4.3,3.4,7.4,3.4
			c3.2,0,5.8-1.1,7.6-3.2c1.9-2.2,2.8-5.2,2.8-9.3c0-3.8-0.9-6.8-2.8-8.9c-1.9-2.1-4.4-3.1-7.6-3.1c-3,0-5.5,1.1-7.4,3.3
			C209.5,245,208.6,248,208.6,251.6z"/>
		<path class="st0" d="M262,214.2v56.5h-9.9v-56.5H262z"/>
		<path class="st0" d="M295.2,232.2c3.9,0,7.5,0.8,10.7,2.5c3.2,1.6,5.7,3.9,7.4,6.9c1.8,3,2.6,6.3,2.6,10.1c0,3.9-0.8,7.3-2.5,10.3
			c-1.7,2.9-4.2,5.3-7.4,7c-3.3,1.7-6.9,2.5-10.8,2.5c-4,0-7.6-0.8-10.8-2.5c-3.2-1.7-5.7-4-7.4-7c-1.7-2.9-2.5-6.4-2.5-10.3
			c0-3.8,0.9-7.2,2.7-10.1c1.8-2.9,4.3-5.2,7.4-6.9C287.8,233,291.3,232.2,295.2,232.2z M284.9,251.6c0,3.8,0.9,6.8,2.8,9
			c1.8,2.3,4.3,3.4,7.4,3.4c3.2,0,5.8-1.1,7.6-3.2c1.9-2.2,2.8-5.2,2.8-9.3c0-3.8-0.9-6.8-2.8-8.9c-1.9-2.1-4.4-3.1-7.6-3.1
			c-3,0-5.5,1.1-7.4,3.3C285.8,245,284.9,248,284.9,251.6z"/>
		<path class="st0" d="M337.7,232.9v23.4c0,2.5,0.6,4.3,1.8,5.6c1.2,1.3,2.9,1.9,4.9,1.9c1.7,0,3.3-0.5,4.8-1.5s2.8-2.5,3.7-4.3v-25
			h9.9v37.8h-9.9v-5.1c-3.6,3.9-7.5,5.9-11.7,5.9c-4,0-7.3-1.3-9.8-4c-2.5-2.6-3.7-6.1-3.7-10.4v-24.2H337.7z"/>
		<path class="st0" d="M398.5,232.2c1.3,0,2.6,0.3,3.9,0.9c1.3,0.6,2.8,1.6,4.5,3l-3.6,8.7c-2.9-2.2-5.2-3.2-7-3.2
			c-1.5,0-3.1,0.6-4.6,1.7c-1.5,1.2-2.7,2.7-3.6,4.6c-0.9,1.9-1.4,3.8-1.4,5.7v17.2h-9.9v-37.8h9.9v9.6h0.2c1.8-3.6,3.6-6.3,5.5-7.9
			C394.3,233,396.4,232.2,398.5,232.2z"/>
		<path class="st0" d="M431.6,213.4c1.2,0,2.4,0.1,3.6,0.3c1.2,0.2,2.2,0.5,3,0.9v8.1c-1.4-0.4-2.9-0.6-4.5-0.6
			c-2.4,0-4.2,0.6-5.4,1.9c-1.2,1.2-1.8,3.3-1.8,6.2v2.7h6.5v7.5h-6.5v30.3h-9.9v-30.3h-5.4v-7.5h5.4v-2.8c0-5.1,1.4-9.1,4.1-12.1
			C423.4,214.9,427.1,213.4,431.6,213.4z"/>
		<path class="st0" d="M452,232.9v23.4c0,2.5,0.6,4.3,1.8,5.6c1.2,1.3,2.9,1.9,4.9,1.9c1.7,0,3.3-0.5,4.8-1.5c1.5-1,2.8-2.5,3.7-4.3
			v-25h9.9v37.8h-9.9v-5.1c-3.6,3.9-7.5,5.9-11.6,5.9c-4,0-7.3-1.3-9.8-4c-2.5-2.6-3.7-6.1-3.7-10.4v-24.2H452z"/>
		<path class="st0" d="M501.6,214.2v56.5h-9.9v-56.5H501.6z"/>
		<path class="st0" d="M264,299.1v48h27.4v8.5h-38.3v-56.5H264z"/>
		<path class="st0" d="M307.1,300.4c1.5,0,2.9,0.6,4,1.7c1.1,1.1,1.7,2.4,1.7,4c0,1.5-0.5,2.8-1.6,3.9c-1.1,1.1-2.4,1.7-4,1.7
			c-1.5,0-2.8-0.6-3.9-1.7c-1.1-1.1-1.7-2.5-1.7-3.9c0-1.6,0.6-2.9,1.7-4C304.3,300.9,305.6,300.4,307.1,300.4z M312.1,317.8v37.8
			h-9.9v-37.8H312.1z"/>
		<path class="st0" d="M342.4,298.4c1.2,0,2.4,0.1,3.6,0.3c1.2,0.2,2.2,0.5,3,0.9v8.1c-1.4-0.4-2.9-0.6-4.5-0.6
			c-2.4,0-4.2,0.6-5.4,1.9c-1.2,1.2-1.8,3.3-1.8,6.2v2.7h6.5v7.5h-6.5v30.3h-9.9v-30.3H322v-7.5h5.4V315c0-5.1,1.4-9.1,4.1-12.1
			C334.2,299.9,337.8,298.4,342.4,298.4z"/>
		<path class="st0" d="M370.1,317.1c5.6,0,9.9,1.8,13.2,5.3c3.2,3.6,4.9,8.5,4.9,14.8v1.5h-26.7c0.4,3.4,1.7,6,3.8,7.8
			c2.1,1.8,5,2.7,8.7,2.7c2.4,0,4.7-0.4,6.9-1.2c2.2-0.8,4.5-2.1,6.8-3.7v7.4c-4.4,3.1-9.8,4.7-16.1,4.7c-6,0-10.8-1.8-14.6-5.4
			c-3.8-3.6-5.7-8.4-5.7-14.3c0-5.7,1.7-10.4,5.2-14.1C360,318.9,364.5,317.1,370.1,317.1z M378.8,332.7c-0.3-2.7-1.1-4.9-2.5-6.5
			c-1.4-1.5-3.3-2.3-5.8-2.3c-2.5,0-4.5,0.7-6,2.2c-1.5,1.5-2.5,3.7-2.9,6.6H378.8z"/>
	</g>
	<g>
		<path class="st0" d="M321,477.7C190.5,477.7,84.3,371.5,84.3,241S190.5,4.3,321,4.3S557.7,110.5,557.7,241S451.5,477.7,321,477.7z
			 M321,14.6C196.2,14.6,94.6,116.2,94.6,241S196.2,467.4,321,467.4S547.4,365.8,547.4,241S445.8,14.6,321,14.6z"/>
	</g>
</g>
</svg>
